HIERARCHY
ROOT pelvis
{
	OFFSET 0.000000 0.000000 0.676596
	CHANNELS 6 Xposition Yposition Zposition Xrotation Yrotation Zrotation
	JOINT spine
	{
		OFFSET 0.000000 0.000000 0.000000
		CHANNELS 6 Xposition Yposition Zposition Xrotation Yrotation Zrotation
		JOINT spine.001
		{
			OFFSET 0.000000 -0.012667 0.241702
			CHANNELS 3 Xrotation Yrotation Zrotation
			JOINT neck
			{
				OFFSET 0.000000 0.029496 0.240229
				CHANNELS 6 Xposition Yposition Zposition Xrotation Yrotation Zrotation
				JOINT face
				{
					OFFSET 0.000000 0.003065 0.175617
					CHANNELS 6 Xposition Yposition Zposition Xrotation Yrotation Zrotation
					End Site
					{
						OFFSET 0.000000 -0.024338 -0.007037
					}
				}
			}
			JOINT shoulder.L
			{
				OFFSET 0.000000 0.029496 0.240229
				CHANNELS 6 Xposition Yposition Zposition Yrotation Xrotation Zrotation
				JOINT upper_arm.L
				{
					OFFSET 0.144323 0.000000 0.000000
					CHANNELS 6 Xposition Yposition Zposition Xrotation Yrotation Zrotation
					JOINT forearm.L
					{
						OFFSET 0.244449 0.000104 0.000865
						CHANNELS 6 Xposition Yposition Zposition Xrotation Yrotation Zrotation
						End Site
						{
							OFFSET 0.221662 -0.003773 -0.001192
						}
					}
				}
			}
			JOINT shoulder.R
			{
				OFFSET 0.000000 0.029496 0.240229
				CHANNELS 6 Xposition Yposition Zposition Yrotation Xrotation Zrotation
				JOINT upper_arm.R
				{
					OFFSET -0.144323 0.000000 0.000000
					CHANNELS 6 Xposition Yposition Zposition Xrotation Yrotation Zrotation
					JOINT forearm.R
					{
						OFFSET -0.241528 0.000104 0.000865
						CHANNELS 6 Xposition Yposition Zposition Xrotation Yrotation Zrotation
						End Site
						{
							OFFSET -0.217530 -0.003701 -0.001192
						}
					}
				}
			}
		}
	}
	JOINT pelvis.L
	{
		OFFSET 0.000000 0.000000 0.000000
		CHANNELS 6 Xposition Yposition Zposition Yrotation Xrotation Zrotation
		End Site
		{
			OFFSET 0.092257 0.000000 0.000000
		}
	}
	JOINT pelvis.R
	{
		OFFSET 0.000000 0.000000 0.000000
		CHANNELS 6 Xposition Yposition Zposition Yrotation Xrotation Zrotation
		End Site
		{
			OFFSET -0.092257 0.000000 0.000000
		}
	}
	JOINT thigh.L
	{
		OFFSET 0.092257 0.000000 0.000000
		CHANNELS 6 Xposition Yposition Zposition Xrotation Yrotation Zrotation
		JOINT shin.L
		{
			OFFSET 0.017006 0.000000 -0.324500
			CHANNELS 6 Xposition Yposition Zposition Xrotation Yrotation Zrotation
			JOINT foot.L
			{
				OFFSET 0.015154 0.000000 -0.289152
				CHANNELS 3 Xrotation Yrotation Zrotation
				End Site
				{
					OFFSET 0.013670 -0.139382 -0.058529
				}
			}
			JOINT heel.02.L
			{
				OFFSET 0.015154 0.000000 -0.289152
				CHANNELS 3 Xrotation Yrotation Zrotation
				End Site
				{
					OFFSET 0.073837 0.031102 -0.058318
				}
			}
		}
	}
	JOINT thigh.R
	{
		OFFSET -0.092257 0.000000 0.000000
		CHANNELS 6 Xposition Yposition Zposition Xrotation Yrotation Zrotation
		JOINT shin.R
		{
			OFFSET -0.016969 0.000000 -0.323782
			CHANNELS 6 Xposition Yposition Zposition Xrotation Yrotation Zrotation
			JOINT foot.R
			{
				OFFSET -0.015331 0.000000 -0.292534
				CHANNELS 3 Xrotation Yrotation Zrotation
				End Site
				{
					OFFSET -0.014343 -0.146242 -0.061410
				}
			}
			JOINT heel.02.R
			{
				OFFSET -0.015331 0.000000 -0.292534
				CHANNELS 3 Xrotation Yrotation Zrotation
				End Site
				{
					OFFSET -0.070735 0.031102 -0.055809
				}
			}
		}
	}
}
MOTION
Frames: 4
Frame Time: 0.041667
0.028729 0.084083 0.678715 -0.000000 0.000000 -4.408147 -0.000000 0.000000 0.000000 -8.001724 2.096406 0.257465 9.989433 -0.384069 -3.129655 0.000000 0.029496 0.240229 8.970924 -1.950415 6.099255 -0.000000 0.003065 0.175617 -1.318320 0.000000 0.000002 -0.000000 0.029496 0.240229 -4.056017 0.017619 0.497552 0.144323 -0.000000 -0.000000 -29.717897 69.195560 41.924517 0.244449 0.000104 0.000865 16.677736 37.080615 -45.844547 -0.000000 0.029496 0.240229 -4.002636 0.017159 0.491034 -0.144324 -0.000000 0.000000 -17.399055 -70.540220 -24.306413 -0.241528 0.000104 0.000865 4.458224 -15.127790 31.952144 -0.000000 -0.000000 0.000000 -0.328862 -0.000000 -0.000075 -0.000000 -0.000000 0.000000 -0.328899 0.000000 0.000000 0.092256 -0.000000 0.000530 4.513447 4.103965 0.075005 0.017006 0.000000 -0.324500 -0.775298 1.168813 -0.032741 -5.324954 -5.357150 10.024578 -19.892096 50.385356 39.412077 -0.092256 -0.000000 -0.000529 -0.378319 -1.535762 0.014767 -0.016969 -0.000000 -0.323782 8.765898 0.889517 -0.528261 -13.939131 4.652609 -5.566122 -22.981413 -51.014078 -40.935175 
0.026929 0.084677 0.679523 -0.000000 0.000000 -4.232032 0.000000 0.000000 0.000000 -7.539683 1.920941 0.228054 9.990841 -0.358635 -2.922223 -0.000000 0.029496 0.240229 7.504574 -1.289034 6.062735 0.000000 0.003065 0.175617 -0.869149 0.000000 -0.000000 -0.000000 0.029496 0.240229 -3.980198 0.016969 0.488351 0.144323 -0.000000 0.000000 -29.551958 68.567333 42.147574 0.244449 0.000104 0.000865 17.164052 37.800910 -46.190633 -0.000000 0.029497 0.240229 -3.926864 0.016517 0.481810 -0.144324 0.000000 -0.000000 -15.275375 -70.800771 -21.270121 -0.241528 0.000104 0.000865 4.219199 -15.194553 30.083657 0.000000 -0.000000 0.000000 -0.814922 -0.000000 -0.000011 0.000000 -0.000000 0.000000 -0.814958 -0.000000 0.000000 0.092248 -0.000000 0.001312 4.446921 4.144733 0.072314 0.017006 -0.000000 -0.324500 -1.101268 0.663329 -0.051356 -5.103735 -5.225328 9.849009 -19.416022 50.389803 40.266919 -0.092248 -0.000000 -0.001312 -0.142353 -1.523045 0.005572 -0.016969 -0.000000 -0.323782 8.097269 0.523503 -0.462008 -12.741975 4.706807 -6.032062 -23.507095 -51.236756 -40.998064 
0.024066 0.085072 0.680179 -0.000000 0.000000 -4.177759 0.000000 -0.000000 -0.000000 -7.181973 1.674888 0.193538 9.995038 -0.263316 -2.145145 -0.000000 0.029496 0.240229 6.497530 -0.589661 5.460794 0.000000 0.003065 0.175617 -0.746240 0.000000 -0.000001 -0.000000 0.029497 0.240229 -3.906087 0.016344 0.479269 0.144323 -0.000000 0.000000 -29.410774 68.029258 42.341268 0.244449 0.000104 0.000865 17.781066 38.753274 -46.558012 -0.000000 0.029497 0.240229 -3.852753 0.015901 0.472736 -0.144324 -0.000000 0.000000 -14.345175 -71.245819 -19.825799 -0.241528 0.000104 0.000865 3.907559 -14.749633 28.724231 -0.000000 0.000000 -0.000000 -1.208365 -0.000000 -0.000006 -0.000000 0.000000 -0.000000 -1.208364 -0.000000 0.000000 0.092237 -0.000000 0.001946 4.441621 4.127504 0.072895 0.017006 0.000000 -0.324500 -1.358161 0.159059 -0.069301 -4.829542 -5.114934 9.738660 -19.222703 50.453217 40.856300 -0.092237 -0.000000 -0.001946 0.289551 -1.612821 -0.011107 -0.016969 0.000000 -0.323782 7.043053 0.221552 -0.383171 -11.496796 4.650033 -6.331263 -24.077875 -51.538688 -41.379560 
0.020013 0.085148 0.680734 -0.000000 0.000000 -4.087617 0.000000 -0.000000 0.000000 -7.007150 1.359706 0.155012 9.998844 -0.124616 -1.015090 0.000000 0.029496 0.240229 6.205179 0.082231 4.612680 0.000000 0.003065 0.175617 -1.092285 0.000000 -0.000001 -0.000000 0.029496 0.240229 -3.837422 0.015774 0.470811 0.144323 -0.000000 -0.000000 -29.230669 67.639712 42.374733 0.244449 0.000104 0.000865 18.460463 39.887089 -46.832486 -0.000000 0.029496 0.240229 -3.783991 0.015338 0.464286 -0.144324 -0.000000 -0.000000 -14.526484 -71.875030 -19.849262 -0.241528 0.000104 0.000865 3.503820 -13.682852 27.856829 0.000000 0.000000 0.000000 -1.464074 0.000001 0.000088 0.000000 0.000000 0.000000 -1.464037 -0.000000 -0.000000 0.092227 -0.000000 0.002357 4.529825 3.961867 0.080910 0.017006 -0.000000 -0.324500 -1.623298 -0.235806 -0.088411 -4.559681 -4.975626 9.564323 -19.208145 50.520065 41.150845 -0.092227 0.000000 -0.002357 1.053027 -1.826522 -0.038434 -0.016969 0.000000 -0.323782 5.417954 -0.005098 -0.283913 -10.307269 4.583384 -6.604141 -24.584048 -51.867787 -42.063406 
